<?xml version="1.0" encoding="UTF-8" standalone="no"?>
<!-- Generator: Adobe Illustrator 19.0.0, SVG Export Plug-In . SVG Version: 6.00 Build 0)  -->

<svg
   xmlns:dc="http://purl.org/dc/elements/1.1/"
   xmlns:cc="http://creativecommons.org/ns#"
   xmlns:rdf="http://www.w3.org/1999/02/22-rdf-syntax-ns#"
   xmlns:svg="http://www.w3.org/2000/svg"
   xmlns="http://www.w3.org/2000/svg"
   xmlns:sodipodi="http://sodipodi.sourceforge.net/DTD/sodipodi-0.dtd"
   xmlns:inkscape="http://www.inkscape.org/namespaces/inkscape"
   version="1.1"
   id="Capa_1"
   x="0px"
   y="0px"
   viewBox="0 0 2000 2000"
   xml:space="preserve"
   sodipodi:docname="bienvenida.svg"
   inkscape:version="0.92.5 (2060ec1f9f, 2020-04-08)"
   width="2000"
   height="2000"><metadata
   id="metadata67"><rdf:RDF><cc:Work
       rdf:about=""><dc:format>image/svg+xml</dc:format><dc:type
         rdf:resource="http://purl.org/dc/dcmitype/StillImage" /><dc:title /></cc:Work></rdf:RDF></metadata><defs
   id="defs65" /><sodipodi:namedview
   pagecolor="#ffffff"
   bordercolor="#666666"
   borderopacity="1"
   objecttolerance="10"
   gridtolerance="10"
   guidetolerance="10"
   inkscape:pageopacity="0"
   inkscape:pageshadow="2"
   inkscape:window-width="1920"
   inkscape:window-height="1022"
   id="namedview63"
   showgrid="false"
   inkscape:zoom="0.79465333"
   inkscape:cx="1121.6701"
   inkscape:cy="835.08619"
   inkscape:window-x="0"
   inkscape:window-y="28"
   inkscape:window-maximized="1"
   inkscape:current-layer="XMLID_1187_" />
<g
   id="XMLID_1187_"
   transform="translate(0,1580)">
	
	
	
	
	<g
   id="XMLID_1196_"
   transform="matrix(3.9487929,0,0,3.8090376,254.4542,-1217.3082)">
		<rect
   id="XMLID_1197_"
   y="100"
   style="fill:#00a9e0;fill-opacity:1"
   width="210"
   height="160"
   x="0" />
	</g>
	<g
   id="XMLID_1198_"
   transform="matrix(4.9145366,0,0,4.9145366,-1.546985,-1490.5321)">
		<rect
   id="XMLID_1199_"
   x="220.82402"
   y="133.10059"
   style="fill:#007cba;fill-opacity:1;stroke-width:0.78914577"
   width="168.73341"
   height="124.00885" />
	</g>
	<g
   id="XMLID_1200_"
   transform="matrix(3.9487929,0,0,3.8090376,254.4542,-1217.3082)">
		<rect
   id="XMLID_1201_"
   x="30"
   y="130"
   style="fill:#ffffff"
   width="360"
   height="100" />
	</g>
	<g
   id="XMLID_1202_"
   transform="matrix(3.9487929,0,0,3.8090376,321.21557,-1183.4142)">
		<g
   id="XMLID_1203_"
   transform="matrix(1.7223553,0,0,1.6054395,-362.53962,89.930077)">
			
		<g
   aria-label="BIENVENIDO "
   style="font-style:normal;font-weight:normal;font-size:40px;line-height:1.25;font-family:sans-serif;letter-spacing:0px;word-spacing:0px;fill:#000000;fill-opacity:1;stroke:none;stroke-width:0.1;stroke-miterlimit:4;stroke-dasharray:none"
   id="text945"><path
     d="m 225.95193,35.628189 h 7.28516 q 4.45313,0 6.48438,1.738281 2.03125,1.71875 2.03125,5.488282 0,2.480468 -1.07422,4.160156 -1.07422,1.660156 -2.92969,2.011719 v 0.195312 q 2.42187,0.605469 3.49609,2.265625 1.07422,1.660156 1.07422,4.414063 0,3.886718 -2.08984,6.09375 -2.07031,2.1875 -5.6836,2.1875 h -8.59375 z m 5,11.484375 h 2.44141 q 1.67969,0 2.36328,-0.898437 0.6836,-0.898438 0.6836,-2.675782 0,-1.777343 -0.78125,-2.539062 -0.78125,-0.78125 -2.46094,-0.78125 h -2.2461 z m 0,4.433594 v 7.988281 h 2.67579 q 1.66015,0 2.46093,-1.015625 0.82032,-1.015625 0.82032,-3.144531 0,-3.828125 -3.35938,-3.828125 z"
     style="font-style:normal;font-variant:normal;font-weight:bold;font-stretch:condensed;font-size:40px;font-family:'Open Sans Condensed';-inkscape-font-specification:'Open Sans Condensed, Bold Condensed';font-variant-ligatures:normal;font-variant-caps:normal;font-variant-numeric:normal;font-feature-settings:normal;text-align:start;writing-mode:lr-tb;text-anchor:start;fill:#007cba;fill-opacity:1;stroke-width:0.1;stroke-miterlimit:4;stroke-dasharray:none"
     id="path841" /><path
     d="M 247.1824,64.182877 V 35.628189 h 5 v 28.554688 z"
     style="font-style:normal;font-variant:normal;font-weight:bold;font-stretch:condensed;font-size:40px;font-family:'Open Sans Condensed';-inkscape-font-specification:'Open Sans Condensed, Bold Condensed';font-variant-ligatures:normal;font-variant-caps:normal;font-variant-numeric:normal;font-feature-settings:normal;text-align:start;writing-mode:lr-tb;text-anchor:start;fill:#007cba;fill-opacity:1;stroke-width:0.1;stroke-miterlimit:4;stroke-dasharray:none"
     id="path843" /><path
     d="M 271.08865,64.182877 H 258.21756 V 35.628189 h 12.87109 v 4.589844 h -7.55859 v 6.796875 h 7.01172 v 4.609375 h -7.01172 v 7.910156 h 7.55859 z"
     style="font-style:normal;font-variant:normal;font-weight:bold;font-stretch:condensed;font-size:40px;font-family:'Open Sans Condensed';-inkscape-font-specification:'Open Sans Condensed, Bold Condensed';font-variant-ligatures:normal;font-variant-caps:normal;font-variant-numeric:normal;font-feature-settings:normal;text-align:start;writing-mode:lr-tb;text-anchor:start;fill:#007cba;fill-opacity:1;stroke-width:0.1;stroke-miterlimit:4;stroke-dasharray:none"
     id="path845" /><path
     d="m 295.24881,64.182877 h -6.48438 l -8.82812,-20.683594 h -0.25391 q 0.48828,2.363281 0.48828,5.078125 v 15.605469 h -4.92187 V 35.628189 h 6.52344 l 8.75,20.46875 h 0.21484 Q 290.366,54.046158 290.366,51.214127 V 35.628189 h 4.88281 z"
     style="font-style:normal;font-variant:normal;font-weight:bold;font-stretch:condensed;font-size:40px;font-family:'Open Sans Condensed';-inkscape-font-specification:'Open Sans Condensed, Bold Condensed';font-variant-ligatures:normal;font-variant-caps:normal;font-variant-numeric:normal;font-feature-settings:normal;text-align:start;writing-mode:lr-tb;text-anchor:start;fill:#007cba;fill-opacity:1;stroke-width:0.1;stroke-miterlimit:4;stroke-dasharray:none"
     id="path847" /><path
     d="m 312.57303,35.628189 h 5.35156 l -6.71875,28.554688 h -6.75781 l -6.67969,-28.554688 h 5.35156 l 3.73047,17.441406 q 0.50781,2.226563 0.9961,6.386719 0.41015,-3.535156 1.03515,-6.386719 z"
     style="font-style:normal;font-variant:normal;font-weight:bold;font-stretch:condensed;font-size:40px;font-family:'Open Sans Condensed';-inkscape-font-specification:'Open Sans Condensed, Bold Condensed';font-variant-ligatures:normal;font-variant-caps:normal;font-variant-numeric:normal;font-feature-settings:normal;text-align:start;writing-mode:lr-tb;text-anchor:start;fill:#007cba;fill-opacity:1;stroke-width:0.1;stroke-miterlimit:4;stroke-dasharray:none"
     id="path849" /><path
     d="m 333.31522,64.182877 h -12.8711 V 35.628189 h 12.8711 v 4.589844 h -7.5586 v 6.796875 h 7.01172 v 4.609375 h -7.01172 v 7.910156 h 7.5586 z"
     style="font-style:normal;font-variant:normal;font-weight:bold;font-stretch:condensed;font-size:40px;font-family:'Open Sans Condensed';-inkscape-font-specification:'Open Sans Condensed, Bold Condensed';font-variant-ligatures:normal;font-variant-caps:normal;font-variant-numeric:normal;font-feature-settings:normal;text-align:start;writing-mode:lr-tb;text-anchor:start;fill:#007cba;fill-opacity:1;stroke-width:0.1;stroke-miterlimit:4;stroke-dasharray:none"
     id="path851" /><path
     d="M 357.47537,64.182877 H 350.991 l -8.82813,-20.683594 h -0.2539 q 0.48828,2.363281 0.48828,5.078125 v 15.605469 h -4.92188 V 35.628189 h 6.52344 l 8.75,20.46875 h 0.21484 q -0.37109,-2.050781 -0.37109,-4.882812 V 35.628189 h 4.88281 z"
     style="font-style:normal;font-variant:normal;font-weight:bold;font-stretch:condensed;font-size:40px;font-family:'Open Sans Condensed';-inkscape-font-specification:'Open Sans Condensed, Bold Condensed';font-variant-ligatures:normal;font-variant-caps:normal;font-variant-numeric:normal;font-feature-settings:normal;text-align:start;writing-mode:lr-tb;text-anchor:start;fill:#007cba;fill-opacity:1;stroke-width:0.1;stroke-miterlimit:4;stroke-dasharray:none"
     id="path853" /><path
     d="M 363.47147,64.182877 V 35.628189 h 5 v 28.554688 z"
     style="font-style:normal;font-variant:normal;font-weight:bold;font-stretch:condensed;font-size:40px;font-family:'Open Sans Condensed';-inkscape-font-specification:'Open Sans Condensed, Bold Condensed';font-variant-ligatures:normal;font-variant-caps:normal;font-variant-numeric:normal;font-feature-settings:normal;text-align:start;writing-mode:lr-tb;text-anchor:start;fill:#007cba;fill-opacity:1;stroke-width:0.1;stroke-miterlimit:4;stroke-dasharray:none"
     id="path855" /><path
     d="m 392.67068,49.632095 q 0,7.070313 -2.89062,10.820313 -2.87109,3.730469 -8.28125,3.730469 h -6.99219 V 35.628189 h 7.63672 q 4.98047,0 7.75391,3.691406 2.77343,3.671875 2.77343,10.3125 z m -5.44921,0.15625 q 0,-9.570312 -5.27344,-9.570312 h -2.12891 v 19.316406 h 1.71875 q 2.91016,0 4.29688,-2.421875 1.38672,-2.441406 1.38672,-7.324219 z"
     style="font-style:normal;font-variant:normal;font-weight:bold;font-stretch:condensed;font-size:40px;font-family:'Open Sans Condensed';-inkscape-font-specification:'Open Sans Condensed, Bold Condensed';font-variant-ligatures:normal;font-variant-caps:normal;font-variant-numeric:normal;font-feature-settings:normal;text-align:start;writing-mode:lr-tb;text-anchor:start;fill:#007cba;fill-opacity:1;stroke-width:0.1;stroke-miterlimit:4;stroke-dasharray:none"
     id="path857" /><path
     d="m 416.47928,49.86647 q 0,7.089844 -2.65625,10.898438 -2.65625,3.808594 -7.59766,3.808594 -4.96094,0 -7.61719,-3.789063 -2.65625,-3.808594 -2.65625,-10.957031 0,-7.089844 2.65625,-10.859375 2.65625,-3.789063 7.65625,-3.789063 4.94141,0 7.57813,3.808594 2.63672,3.789063 2.63672,10.878906 z m -15.09766,0 q 0,4.882813 1.23047,7.441407 1.23047,2.558593 3.61328,2.558593 4.80469,0 4.80469,-10 0,-10 -4.76563,-10 -2.42187,0 -3.65234,2.558594 -1.23047,2.539063 -1.23047,7.441406 z"
     style="font-style:normal;font-variant:normal;font-weight:bold;font-stretch:condensed;font-size:40px;font-family:'Open Sans Condensed';-inkscape-font-specification:'Open Sans Condensed, Bold Condensed';font-variant-ligatures:normal;font-variant-caps:normal;font-variant-numeric:normal;font-feature-settings:normal;text-align:start;writing-mode:lr-tb;text-anchor:start;fill:#007cba;fill-opacity:1;stroke-width:0.1;stroke-miterlimit:4;stroke-dasharray:none"
     id="path859" /></g>


</g>
		
		
		
		
		
		
	</g>
</g>
<g
   id="g32"
   transform="translate(0,1580)">
</g>
<g
   id="g34"
   transform="translate(0,1580)">
</g>
<g
   id="g36"
   transform="translate(0,1580)">
</g>
<g
   id="g38"
   transform="translate(0,1580)">
</g>
<g
   id="g40"
   transform="translate(0,1580)">
</g>
<g
   id="g42"
   transform="translate(0,1580)">
</g>
<g
   id="g44"
   transform="translate(0,1580)">
</g>
<g
   id="g46"
   transform="translate(0,1580)">
</g>
<g
   id="g48"
   transform="translate(0,1580)">
</g>
<g
   id="g50"
   transform="translate(0,1580)">
</g>
<g
   id="g52"
   transform="translate(0,1580)">
</g>
<g
   id="g54"
   transform="translate(0,1580)">
</g>
<g
   id="g56"
   transform="translate(0,1580)">
</g>
<g
   id="g58"
   transform="translate(0,1580)">
</g>
<g
   id="g60"
   transform="translate(0,1580)">
</g>
<g
   id="g941"
   transform="matrix(0.991494,0,0,0.95640308,1712.8257,903.64739)"><path
     id="path927"
     d="m -1187.1623,-375.50324 c -13.8204,-18.0254 -36.3997,-27.41354 -58.9245,-24.51085 -41.2201,5.14258 -189.3754,66.25806 -189.3754,66.25806 0,0 -148.1516,61.11399 -181.1684,86.14277 -17.6318,13.6581 -27.2527,36.78968 -24.3464,59.31305 5.5311,41.05564 37.215,117.863216 37.215,117.863216 0,0 31.8432,77.1939596 56.7075,109.82233 13.8226,18.0203 36.3997,27.41355 58.9282,24.50936 41.6065,-5.30197 189.3717,-66.2565704 189.3717,-66.2565704 0,0 148.1516,-61.1139996 181.1685,-86.1427696 18.0254,-13.820456 27.4135,-36.399676 24.5108,-58.924536 -5.5325,-41.05925 -37.2149,-117.86323 -37.2149,-117.86323 0,0 -31.4548,-77.35845 -56.8721,-110.21083 z m 0,0"
     inkscape:connector-curvature="0"
     style="fill:#005a87;fill-opacity:1" /><path
     id="path929"
     d="m -1385.0109,-77.641864 93.9283,-121.778466 -152.4698,-20.13681 z m 0,0"
     inkscape:connector-curvature="0"
     style="fill:#ffffff" /></g></svg>