<?xml version="1.0" encoding="UTF-8" standalone="no"?>
<svg
   xmlns:dc="http://purl.org/dc/elements/1.1/"
   xmlns:cc="http://creativecommons.org/ns#"
   xmlns:rdf="http://www.w3.org/1999/02/22-rdf-syntax-ns#"
   xmlns:svg="http://www.w3.org/2000/svg"
   xmlns="http://www.w3.org/2000/svg"
   xmlns:sodipodi="http://sodipodi.sourceforge.net/DTD/sodipodi-0.dtd"
   xmlns:inkscape="http://www.inkscape.org/namespaces/inkscape"
   id="Capa_1"
   enable-background="new 0 0 512 512"
   height="512"
   viewBox="0 0 512 512"
   width="512"
   version="1.1"
   sodipodi:docname="google-docs.svg"
   inkscape:version="0.92.5 (2060ec1f9f, 2020-04-08)">
  <metadata
     id="metadata59">
    <rdf:RDF>
      <cc:Work
         rdf:about="">
        <dc:format>image/svg+xml</dc:format>
        <dc:type
           rdf:resource="http://purl.org/dc/dcmitype/StillImage" />
      </cc:Work>
    </rdf:RDF>
  </metadata>
  <defs
     id="defs57" />
  <sodipodi:namedview
     pagecolor="#ffffff"
     bordercolor="#666666"
     borderopacity="1"
     objecttolerance="10"
     gridtolerance="10"
     guidetolerance="10"
     inkscape:pageopacity="0"
     inkscape:pageshadow="2"
     inkscape:window-width="717"
     inkscape:window-height="480"
     id="namedview55"
     showgrid="false"
     inkscape:zoom="0.32593203"
     inkscape:cx="407.5908"
     inkscape:cy="132.97496"
     inkscape:window-x="58"
     inkscape:window-y="129"
     inkscape:window-maximized="0"
     inkscape:current-layer="g4" />
  <g
     id="g52">
    <g
       id="Docs_3_">
      <g
         id="g10">
        <g
           id="g8"
           style="fill:#007cba;fill-opacity:1">
          <g
             id="g6"
             style="fill:#007cba;fill-opacity:1">
            <g
               id="g4"
               style="fill:#007cba;fill-opacity:1">
              <path
                 d="m451 135-105-30-30-105h-210c-24.853 0-45 20.147-45 45v422c0 24.853 20.147 45 45 45h300c24.853 0 45-20.147 45-45z"
                 fill="#4086f4"
                 id="path2"
                 style="fill:#007cba;fill-opacity:1" />
            </g>
          </g>
        </g>
      </g>
      <path
         d="m 451,135 v 332 c 0,24.853 -20.147,45 -45,45 H 256 V 0 h 60 l 30,105 32.61145,9.31756 z"
         id="path12"
         style="fill:#2a589f;fill-opacity:1"
         inkscape:connector-curvature="0"
         sodipodi:nodetypes="csscccccc" />
      <path
         d="m451 135h-105c-16.5 0-30-13.5-30-30v-105c3.9 0 7.8 1.5 10.499 4.501l120 120c3.001 2.699 4.501 6.599 4.501 10.499z"
         fill="#80aef8"
         id="path14"
         style="fill:#00a9e0;fill-opacity:0.94117647" />
      <g
         id="g18">
        <path
           d="m346 241h-180c-8.291 0-15-6.709-15-15s6.709-15 15-15h180c8.291 0 15 6.709 15 15s-6.709 15-15 15z"
           fill="#fff5f5"
           id="path16" />
      </g>
      <g
         id="g22">
        <path
           d="m346 301h-180c-8.291 0-15-6.709-15-15s6.709-15 15-15h180c8.291 0 15 6.709 15 15s-6.709 15-15 15z"
           fill="#fff5f5"
           id="path20" />
      </g>
      <g
         id="g26">
        <path
           d="m346 361h-180c-8.291 0-15-6.709-15-15s6.709-15 15-15h180c8.291 0 15 6.709 15 15s-6.709 15-15 15z"
           fill="#fff5f5"
           id="path24" />
      </g>
      <g
         id="g30">
        <path
           d="m286 421h-120c-8.291 0-15-6.709-15-15s6.709-15 15-15h120c8.291 0 15 6.709 15 15s-6.709 15-15 15z"
           fill="#fff5f5"
           id="path28" />
      </g>
    </g>
    <g
       id="Docs_4_">
      <g
         id="g49">
        <g
           id="g35">
          <path
             d="m256 421h30c8.291 0 15-6.709 15-15s-6.709-15-15-15h-30z"
             fill="#e3e7ea"
             id="path33" />
        </g>
        <g
           id="g39">
          <path
             d="m256 361h90c8.291 0 15-6.709 15-15s-6.709-15-15-15h-90z"
             fill="#e3e7ea"
             id="path37" />
        </g>
        <g
           id="g43">
          <path
             d="m256 301h90c8.291 0 15-6.709 15-15s-6.709-15-15-15h-90z"
             fill="#e3e7ea"
             id="path41" />
        </g>
        <g
           id="g47">
          <path
             d="m256 241h90c8.291 0 15-6.709 15-15s-6.709-15-15-15h-90z"
             fill="#e3e7ea"
             id="path45" />
        </g>
      </g>
    </g>
  </g>
</svg>
