<?xml version="1.0" encoding="UTF-8" standalone="no"?>
<!-- Generator: Adobe Illustrator 19.0.0, SVG Export Plug-In . SVG Version: 6.00 Build 0)  -->

<svg
   xmlns:dc="http://purl.org/dc/elements/1.1/"
   xmlns:cc="http://creativecommons.org/ns#"
   xmlns:rdf="http://www.w3.org/1999/02/22-rdf-syntax-ns#"
   xmlns:svg="http://www.w3.org/2000/svg"
   xmlns="http://www.w3.org/2000/svg"
   xmlns:sodipodi="http://sodipodi.sourceforge.net/DTD/sodipodi-0.dtd"
   xmlns:inkscape="http://www.inkscape.org/namespaces/inkscape"
   version="1.1"
   id="Capa_1"
   x="0px"
   y="0px"
   viewBox="0 0 410.309 410.309"
   style="enable-background:new 0 0 410.309 410.309;"
   xml:space="preserve"
   sodipodi:docname="gallery.svg"
   inkscape:version="0.92.5 (2060ec1f9f, 2020-04-08)"><metadata
   id="metadata49"><rdf:RDF><cc:Work
       rdf:about=""><dc:format>image/svg+xml</dc:format><dc:type
         rdf:resource="http://purl.org/dc/dcmitype/StillImage" /></cc:Work></rdf:RDF></metadata><defs
   id="defs47" /><sodipodi:namedview
   pagecolor="#ffffff"
   bordercolor="#666666"
   borderopacity="1"
   objecttolerance="10"
   gridtolerance="10"
   guidetolerance="10"
   inkscape:pageopacity="0"
   inkscape:pageshadow="2"
   inkscape:window-width="960"
   inkscape:window-height="1022"
   id="namedview45"
   showgrid="false"
   inkscape:zoom="1.1503526"
   inkscape:cx="252.60616"
   inkscape:cy="235.80875"
   inkscape:window-x="0"
   inkscape:window-y="28"
   inkscape:window-maximized="0"
   inkscape:current-layer="g8" />
<g
   id="g12">
	<g
   id="g8">
		<path
   style="fill:#00ACEA;"
   d="M382.955,58.96c16.936,2.176,29.014,17.507,27.167,34.482L386.09,306.079    c-1.848,16.923-17.066,29.144-33.989,27.295c-0.339-0.037-0.677-0.08-1.015-0.128h-1.567V138.372    c0-17.312-14.035-31.347-31.347-31.347H56.947l5.747-52.245c2.179-17.223,17.742-29.535,35.004-27.69L382.955,58.96z"
   id="path2" />
		<path
   style="fill:#007cba;fill-opacity:1"
   d="M349.518,333.246v18.808c0,17.312-14.035,31.347-31.347,31.347H31.347    C14.035,383.401,0,369.366,0,352.054v-43.886l86.204-62.694c13.668-10.37,32.794-9.491,45.453,2.09l57.469,50.155    c12.046,10.215,29.238,11.683,42.841,3.657l117.551-68.963V333.246z"
   id="path4" />
		<path
   style="fill:#00a9e0;fill-opacity:1"
   d="M349.518,138.372v94.041l-117.551,68.963c-13.603,8.026-30.795,6.558-42.841-3.657l-57.469-50.155    c-12.659-11.58-31.785-12.46-45.453-2.09L0,308.168V138.372c0-17.312,14.035-31.347,31.347-31.347h286.824    C335.484,107.026,349.518,121.06,349.518,138.372z"
   id="path6" />
	</g>
	<circle
   style="fill:#D4E1F4;"
   cx="208.98"
   cy="192.707"
   r="33.437"
   id="circle10" />
</g>
<g
   id="g14">
</g>
<g
   id="g16">
</g>
<g
   id="g18">
</g>
<g
   id="g20">
</g>
<g
   id="g22">
</g>
<g
   id="g24">
</g>
<g
   id="g26">
</g>
<g
   id="g28">
</g>
<g
   id="g30">
</g>
<g
   id="g32">
</g>
<g
   id="g34">
</g>
<g
   id="g36">
</g>
<g
   id="g38">
</g>
<g
   id="g40">
</g>
<g
   id="g42">
</g>
</svg>