<?xml version="1.0" encoding="UTF-8" standalone="no"?>
<!-- Generator: Adobe Illustrator 19.0.0, SVG Export Plug-In . SVG Version: 6.00 Build 0)  -->

<svg
   xmlns:dc="http://purl.org/dc/elements/1.1/"
   xmlns:cc="http://creativecommons.org/ns#"
   xmlns:rdf="http://www.w3.org/1999/02/22-rdf-syntax-ns#"
   xmlns:svg="http://www.w3.org/2000/svg"
   xmlns="http://www.w3.org/2000/svg"
   xmlns:sodipodi="http://sodipodi.sourceforge.net/DTD/sodipodi-0.dtd"
   xmlns:inkscape="http://www.inkscape.org/namespaces/inkscape"
   version="1.1"
   id="Capa_1"
   x="0px"
   y="0px"
   viewBox="0 0 512.032 512.032"
   style="enable-background:new 0 0 512.032 512.032;"
   xml:space="preserve"
   sodipodi:docname="map.svg"
   inkscape:version="0.92.5 (2060ec1f9f, 2020-04-08)"><metadata
   id="metadata55"><rdf:RDF><cc:Work
       rdf:about=""><dc:format>image/svg+xml</dc:format><dc:type
         rdf:resource="http://purl.org/dc/dcmitype/StillImage" /></cc:Work></rdf:RDF></metadata><defs
   id="defs53" /><sodipodi:namedview
   pagecolor="#ffffff"
   bordercolor="#666666"
   borderopacity="1"
   objecttolerance="10"
   gridtolerance="10"
   guidetolerance="10"
   inkscape:pageopacity="0"
   inkscape:pageshadow="2"
   inkscape:window-width="717"
   inkscape:window-height="480"
   id="namedview51"
   showgrid="false"
   inkscape:zoom="0.46090871"
   inkscape:cx="256.01599"
   inkscape:cy="256.01599"
   inkscape:window-x="0"
   inkscape:window-y="28"
   inkscape:window-maximized="0"
   inkscape:current-layer="Capa_1" />
<g
   id="g6">
	<g
   id="g4">
		<path
   d="M496.016,224c-8.832,0-16,7.168-16,16v181.184l-128,51.2V304c0-8.832-7.168-16-16-16c-8.832,0-16,7.168-16,16v168.352    l-128-51.2V167.648l74.144,29.664c8.096,3.264,17.504-0.704,20.8-8.928c3.296-8.192-0.704-17.504-8.928-20.8l-95.776-38.336    c0,0,0,0-0.032,0l-0.256-0.096c-3.808-1.536-8.064-1.536-11.872,0l-0.288,0.096c0,0,0,0-0.032,0L10.064,193.152    C4.016,195.584,0.016,201.44,0.016,208v288c0,5.312,2.656,10.272,7.04,13.248c2.688,1.824,5.792,2.752,8.96,2.752    c2.016,0,4.032-0.384,5.952-1.152l154.048-61.6l153.76,61.504c0,0,0,0,0.032,0l0.288,0.128c3.808,1.536,8.064,1.536,11.872,0    l0.288-0.128c0,0,0,0,0.032,0L502,446.88c6.016-2.464,10.016-8.32,10.016-14.88V240C512.016,231.168,504.848,224,496.016,224z     M160.016,421.152l-128,51.2V218.816l128-51.2V421.152z"
   id="path2"
   style="fill:#005a87;fill-opacity:1" />
	</g>
</g>
<g
   id="g12"
   style="fill:#007cba;fill-opacity:1">
	<g
   id="g10"
   style="fill:#007cba;fill-opacity:1">
		<path
   d="M400.016,64c-26.464,0-48,21.536-48,48s21.536,48,48,48s48-21.536,48-48S426.48,64,400.016,64z M400.016,128    c-8.832,0-16-7.168-16-16c0-8.832,7.168-16,16-16c8.832,0,16,7.168,16,16C416.016,120.832,408.848,128,400.016,128z"
   id="path8"
   style="fill:#007cba;fill-opacity:1" />
	</g>
</g>
<g
   id="g18"
   style="fill:#007cba;fill-opacity:1">
	<g
   id="g16"
   style="fill:#007cba;fill-opacity:1">
		<path
   d="M400.016,0c-61.76,0-112,50.24-112,112c0,57.472,89.856,159.264,100.096,170.688c3.04,3.36,7.36,5.312,11.904,5.312    s8.864-1.952,11.904-5.312C422.16,271.264,512.016,169.472,512.016,112C512.016,50.24,461.776,0,400.016,0z M400.016,247.584    c-34.944-41.44-80-105.056-80-135.584c0-44.096,35.904-80,80-80s80,35.904,80,80C480.016,142.496,434.96,206.144,400.016,247.584z    "
   id="path14"
   style="fill:#007cba;fill-opacity:1" />
	</g>
</g>
<g
   id="g20">
</g>
<g
   id="g22">
</g>
<g
   id="g24">
</g>
<g
   id="g26">
</g>
<g
   id="g28">
</g>
<g
   id="g30">
</g>
<g
   id="g32">
</g>
<g
   id="g34">
</g>
<g
   id="g36">
</g>
<g
   id="g38">
</g>
<g
   id="g40">
</g>
<g
   id="g42">
</g>
<g
   id="g44">
</g>
<g
   id="g46">
</g>
<g
   id="g48">
</g>
</svg>