<?xml version="1.0" encoding="UTF-8" standalone="no"?>
<svg
   xmlns:dc="http://purl.org/dc/elements/1.1/"
   xmlns:cc="http://creativecommons.org/ns#"
   xmlns:rdf="http://www.w3.org/1999/02/22-rdf-syntax-ns#"
   xmlns:svg="http://www.w3.org/2000/svg"
   xmlns="http://www.w3.org/2000/svg"
   xmlns:sodipodi="http://sodipodi.sourceforge.net/DTD/sodipodi-0.dtd"
   xmlns:inkscape="http://www.inkscape.org/namespaces/inkscape"
   viewBox="0 0 512 512"
   version="1.1"
   id="svg10"
   sodipodi:docname="whatsapp.svg"
   inkscape:version="0.92.5 (2060ec1f9f, 2020-04-08)">
  <metadata
     id="metadata16">
    <rdf:RDF>
      <cc:Work
         rdf:about="">
        <dc:format>image/svg+xml</dc:format>
        <dc:type
           rdf:resource="http://purl.org/dc/dcmitype/StillImage" />
      </cc:Work>
    </rdf:RDF>
  </metadata>
  <defs
     id="defs14" />
  <sodipodi:namedview
     pagecolor="#ffffff"
     bordercolor="#666666"
     borderopacity="1"
     objecttolerance="10"
     gridtolerance="10"
     guidetolerance="10"
     inkscape:pageopacity="0"
     inkscape:pageshadow="2"
     inkscape:window-width="960"
     inkscape:window-height="1022"
     id="namedview12"
     showgrid="false"
     inkscape:zoom="0.4609375"
     inkscape:cx="39.11643"
     inkscape:cy="263.0143"
     inkscape:window-x="0"
     inkscape:window-y="28"
     inkscape:window-maximized="0"
     inkscape:current-layer="svg10" />
  <path
     d="m256 0c-140.699219 0-256 115.300781-256 256 0 46.5 12.597656 91.5 36.300781 131.101562l-36.300781 124.898438 124.898438-36.300781c39.601562 23.699219 84.601562 36.300781 131.101562 36.300781 140.699219 0 256-115.300781 256-256s-115.300781-256-256-256zm0 0"
     fill="#00dd7b"
     id="path2"
     style="fill:#007cba;fill-opacity:1" />
  <path
     d="m512 256c0 140.699219-115.300781 256-256 256v-512c140.699219 0 256 115.300781 256 256zm0 0"
     fill="#00cc71"
     id="path4"
     style="fill:#005a87;fill-opacity:1" />
  <path
     d="m417.199219 364.300781-12 11.699219c-16.800781 16.800781-55.800781 15.597656-80.699219 10.800781-22.199219-4.199219-46-14.101562-68.5-27.902343-61.199219-37.199219-116.699219-103.199219-130.199219-162.597657-9.300781-40.203125-4.199219-75 9-88.5l12-12c6.601563-6.300781 17.097657-6.300781 23.699219 0l47.699219 47.699219c3.300781 3.300781 5.101562 7.5 5.101562 12s-1.800781 8.699219-5.101562 12l-12 11.699219c-12.898438 13.199219-12.898438 34.5 0 47.699219l49.800781 48.902343 29.097656 28.800781c13.203125 13.199219 35.503906 13.199219 48.703125 0l11.699219-12.003906c6.300781-6 17.699219-6 24 0l47.699219 47.703125c6.300781 6.597657 6.601562 17.097657 0 24zm0 0"
     fill="#ececf1"
     id="path6" />
  <path
     d="m417.199219 364.300781-12 11.699219c-16.800781 16.800781-55.800781 15.597656-80.699219 10.800781-22.199219-4.199219-46-14.101562-68.5-27.902343v-83.097657l29.097656 28.800781c13.203125 13.199219 35.503906 13.199219 48.703125 0l11.699219-12.003906c6.300781-6 17.699219-6 24 0l47.699219 47.703125c6.300781 6.597657 6.601562 17.097657 0 24zm0 0"
     fill="#e2e2e7"
     id="path8" />
</svg>
